<?xml version="1.0" encoding="utf-8"?>
<!-- Generator: Adobe Illustrator 20.1.0, SVG Export Plug-In . SVG Version: 6.00 Build 0)  -->
<svg version="1.1" id="Layer_1" xmlns="http://www.w3.org/2000/svg" xmlns:xlink="http://www.w3.org/1999/xlink" x="0px" y="0px"
	 viewBox="0 0 100 125" style="enable-background:new 0 0 100 125;" xml:space="preserve">

<path fill="white" d="M12.5,52.1c2.2,0,4.1,1.8,4.1,4.1v6.1h66v-5.9c0-2.2,1.8-4.1,4.1-4.1h4.7v-12c0-2-1.6-3.6-3.6-3.6H11.3
	c-2,0-3.6,1.6-3.6,3.6v11.8H12.5z"/>
<rect x="16.6" y="63.3" fill="white" width="66" height="14.6"/>
<path fill="white" d="M12.5,53.1H3c-1.7,0-3,1.2-3,2.6v7.1h0v17.4c0,1.1,1.4,2,3,2h9.4c1.7,0,3-0.9,3-2v-2.3h0V55.7
	C15.5,54.3,14.2,53.1,12.5,53.1z"/>
<path fill="white" d="M96,53.1h-9.4c-1.7,0-3,1.2-3,2.6v7.1h0v17.4c0,1.1,1.4,2,3,2H96c1.7,0,3-0.9,3-2v-2.3h0V55.7
	C99.1,54.3,97.7,53.1,96,53.1z"/>
</svg>
