<?xml version="1.0" encoding="utf-8"?>
<!-- Generator: Adobe Illustrator 19.1.0, SVG Export Plug-In . SVG Version: 6.00 Build 0)  -->
<svg version="1.1" id="Layer_1" xmlns="http://www.w3.org/2000/svg" xmlns:xlink="http://www.w3.org/1999/xlink" x="0px" y="0px"
	 viewBox="0 0 81 79.6" enable-background="new 0 0 81 79.6" xml:space="preserve">
<path fill="white" id="trailerIcon" d="M56.2,28.8h-7.2c-1.5,0-2.7,1.2-2.7,2.7v27.6h12.6V31.5C58.8,30,57.6,28.8,56.2,28.8z M79,55h-3
	c0-3.9,0-10.3,0-17.1c0-11.2-5.8-23.1-18.9-23.1s-28.6,0-36.3,0C3.3,14.8,0.6,35.3,0,56.1c0,1,0.3,2.9,1.5,2.9h15.8l0,0
	c0-5.1,4.2-9.3,9.3-9.3s9.3,4.2,9.3,9.3l0,0h6.4V31.6c0-3.7,3-6.6,6.6-6.6h7.1c3.7,0,6.6,3,6.6,6.6v27.5h12.5H76h3
	c1.1,0,2.1-0.9,2.1-2.1C81,55.9,80.1,55,79,55z M35,34.9c0,1.7-1.4,3.1-3.1,3.1H21.4c-1.7,0-3.1-1.4-3.1-3.1v-2.1
	c0-1.7,1.4-3.1,3.1-3.1h10.5c1.7,0,3.1,1.4,3.1,3.1V34.9z M26.7,53.3c-3.2,0-5.7,2.6-5.7,5.7c0,3.2,2.6,5.7,5.7,5.7
	c3.2,0,5.7-2.6,5.7-5.7C32.4,55.9,29.8,53.3,26.7,53.3z"/>
</svg>
